<svg width="95" height="95" viewBox="0 0 95 95" fill="none" xmlns="http://www.w3.org/2000/svg">
<rect width="95" height="95" rx="10" fill="#ECF6FF"/>
<path d="M49.33 56H49.12C48.6968 55.958 48.2979 55.7822 47.9814 55.498C47.6649 55.2139 47.4472 54.8363 47.36 54.42L44.68 42L41.92 48.4C41.8419 48.5789 41.7132 48.731 41.5497 48.8376C41.3863 48.9442 41.1952 49.0007 41 49H38C37.7348 49 37.4804 48.8946 37.2929 48.7071C37.1054 48.5196 37 48.2652 37 48C37 47.7348 37.1054 47.4804 37.2929 47.2929C37.4804 47.1053 37.7348 47 38 47H40.34L42.85 41.21C43.019 40.8214 43.307 40.4966 43.6724 40.2823C44.0379 40.068 44.462 39.9753 44.8836 40.0175C45.3052 40.0598 45.7024 40.2349 46.0181 40.5175C46.3338 40.8001 46.5515 41.1756 46.64 41.59L49.32 54L52.08 47.62C52.155 47.4374 52.2824 47.281 52.4461 47.1707C52.6099 47.0604 52.8026 47.001 53 47H56C56.2652 47 56.5196 47.1053 56.7071 47.2929C56.8946 47.4804 57 47.7348 57 48C57 48.2652 56.8946 48.5196 56.7071 48.7071C56.5196 48.8946 56.2652 49 56 49H53.66L51.15 54.79C50.9967 55.1465 50.7431 55.4507 50.4199 55.6656C50.0967 55.8804 49.718 55.9966 49.33 56Z" fill="#0283FA"/>
</svg>
