<svg width="36" height="36" viewBox="0 0 36 36" fill="none" xmlns="http://www.w3.org/2000/svg">
<circle cx="18" cy="18" r="18" fill="#0283FA"/>
<path d="M14 17.9998C13.9996 17.7661 14.0809 17.5397 14.23 17.3598L19.23 11.3598C19.3998 11.1556 19.6437 11.0271 19.9081 11.0028C20.1725 10.9784 20.4358 11.06 20.64 11.2298C20.8442 11.3995 20.9727 11.6434 20.9971 11.9079C21.0214 12.1723 20.9398 12.4356 20.77 12.6398L16.29 17.9998L20.61 23.3598C20.6931 23.4621 20.7551 23.5798 20.7926 23.7061C20.83 23.8324 20.8421 23.9649 20.8281 24.096C20.8142 24.227 20.7745 24.354 20.7113 24.4696C20.6482 24.5853 20.5628 24.6873 20.46 24.7698C20.3572 24.8614 20.2366 24.9307 20.1057 24.9735C19.9748 25.0163 19.8365 25.0316 19.6995 25.0185C19.5624 25.0053 19.4295 24.964 19.3092 24.8971C19.1888 24.8303 19.0836 24.7392 19 24.6298L14.17 18.6298C14.0445 18.4447 13.9847 18.2229 14 17.9998Z" fill="white"/>
</svg>
