<svg width="74" height="74" viewBox="0 0 74 74" fill="none" xmlns="http://www.w3.org/2000/svg">
<rect x="36.7696" y="2.12132" width="49" height="49" rx="8.5" transform="rotate(45 36.7696 2.12132)" stroke="#0283FA" stroke-width="3"/>
<path d="M45 33L39 27.74C38.45 27.2481 37.7379 26.9761 37 26.9761C36.2621 26.9761 35.55 27.2481 35 27.74L29 33C28.6824 33.2841 28.4289 33.6326 28.2565 34.0223C28.084 34.4119 27.9966 34.8339 28 35.26V44C28 44.7957 28.3161 45.5587 28.8787 46.1213C29.4413 46.6839 30.2044 47 31 47H43C43.7956 47 44.5587 46.6839 45.1213 46.1213C45.6839 45.5587 46 44.7957 46 44V35.25C46.002 34.8256 45.9138 34.4055 45.7415 34.0177C45.5691 33.6298 45.3164 33.283 45 33V33ZM39 45H35V40C35 39.7348 35.1054 39.4804 35.2929 39.2929C35.4804 39.1054 35.7348 39 36 39H38C38.2652 39 38.5196 39.1054 38.7071 39.2929C38.8946 39.4804 39 39.7348 39 40V45ZM44 44C44 44.2652 43.8946 44.5196 43.7071 44.7071C43.5196 44.8946 43.2652 45 43 45H41V40C41 39.2044 40.6839 38.4413 40.1213 37.8787C39.5587 37.3161 38.7956 37 38 37H36C35.2043 37 34.4413 37.3161 33.8787 37.8787C33.3161 38.4413 33 39.2044 33 40V45H31C30.7348 45 30.4804 44.8946 30.2929 44.7071C30.1054 44.5196 30 44.2652 30 44V35.25C30.0002 35.108 30.0306 34.9677 30.0892 34.8384C30.1478 34.7091 30.2333 34.5937 30.34 34.5L36.34 29.25C36.5225 29.0897 36.7571 29.0013 37 29.0013C37.2429 29.0013 37.4775 29.0897 37.66 29.25L43.66 34.5C43.7667 34.5937 43.8522 34.7091 43.9108 34.8384C43.9694 34.9677 43.9998 35.108 44 35.25V44Z" fill="#0283FA"/>
</svg>
