<svg width="36" height="36" viewBox="0 0 36 36" fill="none" xmlns="http://www.w3.org/2000/svg">
<circle cx="18" cy="18" r="18" fill="#0283FA"/>
<path d="M22 18.0002C22.0004 18.2339 21.9191 18.4603 21.77 18.6402L16.77 24.6402C16.6002 24.8444 16.3563 24.9729 16.0919 24.9972C15.8275 25.0216 15.5642 24.94 15.36 24.7702C15.1558 24.6005 15.0273 24.3566 15.0029 24.0921C14.9786 23.8277 15.0602 23.5644 15.23 23.3602L19.71 18.0002L15.39 12.6402C15.3069 12.5379 15.2449 12.4202 15.2074 12.2939C15.17 12.1676 15.1579 12.0351 15.1719 11.904C15.1858 11.773 15.2255 11.646 15.2887 11.5304C15.3518 11.4147 15.4372 11.3127 15.54 11.2302C15.6428 11.1386 15.7634 11.0693 15.8943 11.0265C16.0252 10.9837 16.1635 10.9684 16.3005 10.9815C16.4376 10.9947 16.5705 11.036 16.6908 11.1029C16.8112 11.1697 16.9164 11.2608 17 11.3702L21.83 17.3702C21.9555 17.5553 22.0153 17.7771 22 18.0002Z" fill="white"/>
</svg>
