<svg width="95" height="95" viewBox="0 0 95 95" fill="none" xmlns="http://www.w3.org/2000/svg">
<rect width="95" height="95" rx="10" fill="#ECF6FF"/>
<path d="M45 53H46V54C46 54.2652 46.1054 54.5196 46.2929 54.7071C46.4804 54.8946 46.7348 55 47 55C47.2652 55 47.5196 54.8946 47.7071 54.7071C47.8946 54.5196 48 54.2652 48 54V53H49C49.2652 53 49.5196 52.8946 49.7071 52.7071C49.8946 52.5196 50 52.2652 50 52C50 51.7348 49.8946 51.4804 49.7071 51.2929C49.5196 51.1054 49.2652 51 49 51H48V50C48 49.7348 47.8946 49.4804 47.7071 49.2929C47.5196 49.1054 47.2652 49 47 49C46.7348 49 46.4804 49.1054 46.2929 49.2929C46.1054 49.4804 46 49.7348 46 50V51H45C44.7348 51 44.4804 51.1054 44.2929 51.2929C44.1054 51.4804 44 51.7348 44 52C44 52.2652 44.1054 52.5196 44.2929 52.7071C44.4804 52.8946 44.7348 53 45 53ZM54 42H52V41C52 40.2044 51.6839 39.4413 51.1213 38.8787C50.5587 38.3161 49.7956 38 49 38H45C44.2044 38 43.4413 38.3161 42.8787 38.8787C42.3161 39.4413 42 40.2044 42 41V42H40C39.2044 42 38.4413 42.3161 37.8787 42.8787C37.3161 43.4413 37 44.2044 37 45V55C37 55.7956 37.3161 56.5587 37.8787 57.1213C38.4413 57.6839 39.2044 58 40 58H54C54.7956 58 55.5587 57.6839 56.1213 57.1213C56.6839 56.5587 57 55.7956 57 55V45C57 44.2044 56.6839 43.4413 56.1213 42.8787C55.5587 42.3161 54.7956 42 54 42ZM44 41C44 40.7348 44.1054 40.4804 44.2929 40.2929C44.4804 40.1054 44.7348 40 45 40H49C49.2652 40 49.5196 40.1054 49.7071 40.2929C49.8946 40.4804 50 40.7348 50 41V42H44V41ZM55 55C55 55.2652 54.8946 55.5196 54.7071 55.7071C54.5196 55.8946 54.2652 56 54 56H40C39.7348 56 39.4804 55.8946 39.2929 55.7071C39.1054 55.5196 39 55.2652 39 55V48H55V55ZM55 46H39V45C39 44.7348 39.1054 44.4804 39.2929 44.2929C39.4804 44.1054 39.7348 44 40 44H54C54.2652 44 54.5196 44.1054 54.7071 44.2929C54.8946 44.4804 55 44.7348 55 45V46Z" fill="#0283FA"/>
</svg>
