<svg width="95" height="95" viewBox="0 0 95 95" fill="none" xmlns="http://www.w3.org/2000/svg">
<rect width="95" height="95" rx="10" fill="#ECF6FF"/>
<path d="M55 44C54.293 43.9982 53.6082 44.2468 53.0669 44.7018C52.5257 45.1567 52.1631 45.7886 52.0433 46.4854C51.9234 47.1822 52.0542 47.8989 52.4124 48.5085C52.7706 49.1181 53.333 49.5812 54 49.8157V51.5C54 52.6935 53.5259 53.8381 52.682 54.682C51.8381 55.5259 50.6935 56 49.5 56C48.3065 56 47.1619 55.5259 46.318 54.682C45.4741 53.8381 45 52.6935 45 51.5V50.9097C46.3966 50.6727 47.6645 49.9496 48.5795 48.8681C49.4944 47.7867 49.9976 46.4166 50 45V39C50 38.7348 49.8946 38.4804 49.7071 38.2929C49.5196 38.1054 49.2652 38 49 38H47C46.7348 38 46.4804 38.1054 46.2929 38.2929C46.1054 38.4804 46 38.7348 46 39C46 39.2652 46.1054 39.5196 46.2929 39.7071C46.4804 39.8946 46.7348 40 47 40H48V45C48 46.0609 47.5786 47.0783 46.8284 47.8284C46.0783 48.5786 45.0609 49 44 49C42.9391 49 41.9217 48.5786 41.1716 47.8284C40.4214 47.0783 40 46.0609 40 45V40H41C41.2652 40 41.5196 39.8946 41.7071 39.7071C41.8946 39.5196 42 39.2652 42 39C42 38.7348 41.8946 38.4804 41.7071 38.2929C41.5196 38.1054 41.2652 38 41 38H39C38.7348 38 38.4804 38.1054 38.2929 38.2929C38.1054 38.4804 38 38.7348 38 39V45C38.0024 46.4166 38.5056 47.7867 39.4205 48.8681C40.3355 49.9496 41.6034 50.6727 43 50.9097V51.5C43 53.2239 43.6848 54.8772 44.9038 56.0962C46.1228 57.3152 47.7761 58 49.5 58C51.2239 58 52.8772 57.3152 54.0962 56.0962C55.3152 54.8772 56 53.2239 56 51.5V49.8157C56.667 49.5812 57.2294 49.1181 57.5876 48.5085C57.9458 47.899 58.0765 47.1822 57.9567 46.4854C57.8369 45.7886 57.4743 45.1568 56.933 44.7018C56.3918 44.2469 55.707 43.9982 55 44ZM55 48C54.8022 48 54.6089 47.9414 54.4444 47.8315C54.28 47.7216 54.1518 47.5654 54.0761 47.3827C54.0004 47.2 53.9806 46.9989 54.0192 46.8049C54.0578 46.6109 54.153 46.4327 54.2929 46.2929C54.4327 46.153 54.6109 46.0578 54.8049 46.0192C54.9989 45.9806 55.2 46.0004 55.3827 46.0761C55.5654 46.1518 55.7216 46.28 55.8315 46.4444C55.9414 46.6089 56 46.8022 56 47C55.9997 47.2651 55.8942 47.5193 55.7067 47.7067C55.5193 47.8942 55.2651 47.9997 55 48Z" fill="#0283FA"/>
</svg>
