<svg width="95" height="95" viewBox="0 0 95 95" fill="none" xmlns="http://www.w3.org/2000/svg">
<rect width="95" height="95" rx="10" fill="#ECF6FF"/>
<path d="M55.12 42.71L52.29 39.88C51.7279 39.3172 50.9654 39.0007 50.17 39H43.83C43.0346 39.0007 42.2721 39.3172 41.71 39.88L38.88 42.71C38.3172 43.2721 38.0007 44.0346 38 44.83V54C38 54.7956 38.3161 55.5587 38.8787 56.1213C39.4413 56.6839 40.2044 57 41 57H53C53.7956 57 54.5587 56.6839 55.1213 56.1213C55.6839 55.5587 56 54.7956 56 54V44.83C55.9993 44.0346 55.6828 43.2721 55.12 42.71ZM43.12 41.29C43.3116 41.1073 43.5652 41.0037 43.83 41H50.17C50.4348 41.0037 50.6884 41.1073 50.88 41.29L52.59 43H41.41L43.12 41.29ZM53 55H41C40.7348 55 40.4804 54.8946 40.2929 54.7071C40.1054 54.5196 40 54.2652 40 54V45H54V54C54 54.2652 53.8946 54.5196 53.7071 54.7071C53.5196 54.8946 53.2652 55 53 55Z" fill="#0283FA"/>
<path d="M50 47C49.7348 47 49.4804 47.1054 49.2929 47.2929C49.1054 47.4804 49 47.7348 49 48C49 48.5304 48.7893 49.0391 48.4142 49.4142C48.0391 49.7893 47.5304 50 47 50C46.4696 50 45.9609 49.7893 45.5858 49.4142C45.2107 49.0391 45 48.5304 45 48C45 47.7348 44.8946 47.4804 44.7071 47.2929C44.5196 47.1054 44.2652 47 44 47C43.7348 47 43.4804 47.1054 43.2929 47.2929C43.1054 47.4804 43 47.7348 43 48C43 49.0609 43.4214 50.0783 44.1716 50.8284C44.9217 51.5786 45.9391 52 47 52C48.0609 52 49.0783 51.5786 49.8284 50.8284C50.5786 50.0783 51 49.0609 51 48C51 47.7348 50.8946 47.4804 50.7071 47.2929C50.5196 47.1054 50.2652 47 50 47Z" fill="#0283FA"/>
</svg>
