<svg width="95" height="95" viewBox="0 0 95 95" fill="none" xmlns="http://www.w3.org/2000/svg">
<rect width="95" height="95" rx="10" fill="#ECF6FF"/>
<path d="M42 46H44C44.2652 46 44.5196 45.8946 44.7071 45.7071C44.8946 45.5196 45 45.2652 45 45C45 44.7348 44.8946 44.4804 44.7071 44.2929C44.5196 44.1054 44.2652 44 44 44H42C41.7348 44 41.4804 44.1054 41.2929 44.2929C41.1054 44.4804 41 44.7348 41 45C41 45.2652 41.1054 45.5196 41.2929 45.7071C41.4804 45.8946 41.7348 46 42 46ZM56 40H48V39C48 38.7348 47.8946 38.4804 47.7071 38.2929C47.5196 38.1054 47.2652 38 47 38C46.7348 38 46.4804 38.1054 46.2929 38.2929C46.1054 38.4804 46 38.7348 46 39V40H38C37.7348 40 37.4804 40.1054 37.2929 40.2929C37.1054 40.4804 37 40.7348 37 41V51C37 51.7956 37.3161 52.5587 37.8787 53.1213C38.4413 53.6839 39.2044 54 40 54H44.59L42.29 56.29C42.1963 56.383 42.1219 56.4936 42.0711 56.6154C42.0203 56.7373 41.9942 56.868 41.9942 57C41.9942 57.132 42.0203 57.2627 42.0711 57.3846C42.1219 57.5064 42.1963 57.617 42.29 57.71C42.383 57.8037 42.4936 57.8781 42.6154 57.9289C42.7373 57.9797 42.868 58.0058 43 58.0058C43.132 58.0058 43.2627 57.9797 43.3846 57.9289C43.5064 57.8781 43.617 57.8037 43.71 57.71L46 55.41V57C46 57.2652 46.1054 57.5196 46.2929 57.7071C46.4804 57.8946 46.7348 58 47 58C47.2652 58 47.5196 57.8946 47.7071 57.7071C47.8946 57.5196 48 57.2652 48 57V55.41L50.29 57.71C50.383 57.8037 50.4936 57.8781 50.6154 57.9289C50.7373 57.9797 50.868 58.0058 51 58.0058C51.132 58.0058 51.2627 57.9797 51.3846 57.9289C51.5064 57.8781 51.617 57.8037 51.71 57.71C51.8037 57.617 51.8781 57.5064 51.9289 57.3846C51.9797 57.2627 52.0058 57.132 52.0058 57C52.0058 56.868 51.9797 56.7373 51.9289 56.6154C51.8781 56.4936 51.8037 56.383 51.71 56.29L49.41 54H54C54.7956 54 55.5587 53.6839 56.1213 53.1213C56.6839 52.5587 57 51.7956 57 51V41C57 40.7348 56.8946 40.4804 56.7071 40.2929C56.5196 40.1054 56.2652 40 56 40ZM55 51C55 51.2652 54.8946 51.5196 54.7071 51.7071C54.5196 51.8946 54.2652 52 54 52H40C39.7348 52 39.4804 51.8946 39.2929 51.7071C39.1054 51.5196 39 51.2652 39 51V42H55V51ZM42 50H48C48.2652 50 48.5196 49.8946 48.7071 49.7071C48.8946 49.5196 49 49.2652 49 49C49 48.7348 48.8946 48.4804 48.7071 48.2929C48.5196 48.1054 48.2652 48 48 48H42C41.7348 48 41.4804 48.1054 41.2929 48.2929C41.1054 48.4804 41 48.7348 41 49C41 49.2652 41.1054 49.5196 41.2929 49.7071C41.4804 49.8946 41.7348 50 42 50Z" fill="#0283FA"/>
</svg>
