<svg width="36" height="36" viewBox="0 0 36 36" fill="none" xmlns="http://www.w3.org/2000/svg">
<circle cx="18" cy="18" r="18" fill="#0283FA"/>
<path d="M23 9.50005C23 9.36745 22.9473 9.24027 22.8536 9.1465C22.7598 9.05273 22.6326 9.00005 22.5 9.00005H20C18.7411 8.93734 17.5086 9.37544 16.5717 10.2186C15.6348 11.0618 15.0698 12.2415 15 13.5001V16.2001H12.5C12.3674 16.2001 12.2402 16.2527 12.1464 16.3465C12.0527 16.4403 12 16.5674 12 16.7001V19.3001C12 19.4327 12.0527 19.5598 12.1464 19.6536C12.2402 19.7474 12.3674 19.8001 12.5 19.8001H15V26.5001C15 26.6327 15.0527 26.7598 15.1464 26.8536C15.2402 26.9474 15.3674 27.0001 15.5 27.0001H18.5C18.6326 27.0001 18.7598 26.9474 18.8536 26.8536C18.9473 26.7598 19 26.6327 19 26.5001V19.8001H21.62C21.7312 19.8017 21.8397 19.7661 21.9285 19.6991C22.0172 19.6321 22.0811 19.5374 22.11 19.4301L22.83 16.8301C22.8499 16.7562 22.8526 16.6787 22.8378 16.6036C22.8231 16.5286 22.7913 16.4579 22.7449 16.397C22.6985 16.3362 22.6388 16.2868 22.5704 16.2526C22.5019 16.2185 22.4265 16.2005 22.35 16.2001H19V13.5001C19.0249 13.2525 19.1411 13.0232 19.326 12.8567C19.5109 12.6903 19.7512 12.5988 20 12.6001H22.5C22.6326 12.6001 22.7598 12.5474 22.8536 12.4536C22.9473 12.3598 23 12.2327 23 12.1001V9.50005Z" fill="white"/>
</svg>
