<svg width="74" height="74" viewBox="0 0 74 74" fill="none" xmlns="http://www.w3.org/2000/svg">
<rect x="36.7696" y="2.12132" width="49" height="49" rx="8.5" transform="rotate(45 36.7696 2.12132)" stroke="#0283FA" stroke-width="3"/>
<path d="M37 46C36.8684 46.0008 36.7379 45.9756 36.6161 45.9258C36.4943 45.876 36.3834 45.8027 36.29 45.71L28.52 37.93C27.5454 36.9452 26.9987 35.6156 26.9987 34.23C26.9987 32.8444 27.5454 31.5148 28.52 30.53C29.5023 29.5505 30.8328 29.0005 32.22 29.0005C33.6072 29.0005 34.9377 29.5505 35.92 30.53L37 31.61L38.08 30.53C39.0623 29.5505 40.3928 29.0005 41.78 29.0005C43.1672 29.0005 44.4977 29.5505 45.48 30.53C46.4546 31.5148 47.0013 32.8444 47.0013 34.23C47.0013 35.6156 46.4546 36.9452 45.48 37.93L37.71 45.71C37.6166 45.8027 37.5057 45.876 37.3839 45.9258C37.2621 45.9756 37.1316 46.0008 37 46ZM32.22 31C31.7967 30.9981 31.3772 31.0802 30.9858 31.2416C30.5944 31.4029 30.239 31.6403 29.94 31.94C29.3361 32.5471 28.997 33.3687 28.997 34.225C28.997 35.0814 29.3361 35.9029 29.94 36.51L37 43.58L44.06 36.51C44.6639 35.9029 45.003 35.0814 45.003 34.225C45.003 33.3687 44.6639 32.5471 44.06 31.94C43.4437 31.3577 42.6279 31.0333 41.78 31.0333C40.9321 31.0333 40.1163 31.3577 39.5 31.94L37.71 33.74C37.617 33.8337 37.5064 33.9081 37.3846 33.9589C37.2627 34.0097 37.132 34.0358 37 34.0358C36.868 34.0358 36.7373 34.0097 36.6154 33.9589C36.4936 33.9081 36.383 33.8337 36.29 33.74L34.5 31.94C34.201 31.6403 33.8456 31.4029 33.4542 31.2416C33.0628 31.0802 32.6433 30.9981 32.22 31V31Z" fill="#0283FA"/>
</svg>
