<svg width="95" height="95" viewBox="0 0 95 95" fill="none" xmlns="http://www.w3.org/2000/svg">
<rect width="95" height="95" rx="10" fill="#ECF6FF"/>
<path d="M44.82 47.29C44.7263 47.3829 44.6519 47.4935 44.6011 47.6154C44.5504 47.7372 44.5242 47.8679 44.5242 48C44.5242 48.132 44.5504 48.2627 44.6011 48.3845C44.6519 48.5064 44.7263 48.617 44.82 48.71C45.0074 48.8962 45.2608 49.0007 45.525 49.0007C45.7892 49.0007 46.0427 48.8962 46.23 48.71C46.3237 48.617 46.3981 48.5064 46.4489 48.3845C46.4997 48.2627 46.5258 48.132 46.5258 48C46.5258 47.8679 46.4997 47.7372 46.4489 47.6154C46.3981 47.4935 46.3237 47.3829 46.23 47.29C46.0427 47.1037 45.7892 46.9992 45.525 46.9992C45.2608 46.9992 45.0074 47.1037 44.82 47.29ZM47.29 49.77C47.1038 49.9573 46.9992 50.2108 46.9992 50.475C46.9992 50.7391 47.1038 50.9926 47.29 51.18C47.383 51.2737 47.4936 51.3481 47.6154 51.3988C47.7373 51.4496 47.868 51.4758 48 51.4758C48.132 51.4758 48.2627 51.4496 48.3846 51.3988C48.5065 51.3481 48.6171 51.2737 48.71 51.18C48.8963 50.9926 49.0008 50.7391 49.0008 50.475C49.0008 50.2108 48.8963 49.9573 48.71 49.77C48.6171 49.6762 48.5065 49.6018 48.3846 49.5511C48.2627 49.5003 48.132 49.4742 48 49.4742C47.868 49.4742 47.7373 49.5003 47.6154 49.5511C47.4936 49.6018 47.383 49.6762 47.29 49.77ZM56.29 39.77C55.2022 38.6732 53.7333 38.0382 52.1891 37.9972C50.6449 37.9563 49.1444 38.5124 48 39.55C46.8609 38.5245 45.3725 37.9739 43.8402 38.0111C42.308 38.0483 40.8481 38.6705 39.76 39.75C38.679 40.8398 38.0569 42.3025 38.0215 43.8371C37.9862 45.3717 38.5403 46.8615 39.57 48C38.8002 48.8606 38.2951 49.9251 38.1152 51.0657C37.9354 52.2063 38.0885 53.3746 38.5562 54.4303C39.0239 55.4861 39.7863 56.3844 40.7519 57.0176C41.7175 57.6508 42.8453 57.9919 44 58C45.4802 58.0015 46.9073 57.4485 48 56.45C49.1397 57.4783 50.6302 58.0307 52.1649 57.9935C53.6995 57.9563 55.1615 57.3323 56.25 56.25C57.3296 55.1588 57.95 53.6954 57.9834 52.1608C58.0169 50.6262 57.461 49.1371 56.43 48C57.461 46.8628 58.0169 45.3737 57.9834 43.8391C57.95 42.3045 57.3296 40.8411 56.25 39.75L56.29 39.77ZM54.83 41.17C55.5254 41.8853 55.9284 42.8348 55.9599 43.832C55.9913 44.8292 55.649 45.8022 55 46.56L49.44 41C50.2044 40.3657 51.1744 40.0329 52.1672 40.0642C53.16 40.0955 54.1071 40.4888 54.83 41.17ZM41.17 54.83C40.4746 54.1146 40.0716 53.1651 40.0401 52.1679C40.0087 51.1707 40.351 50.1977 41 49.44L46.6 55.04C45.8271 55.678 44.8464 56.0092 43.845 55.9705C42.8435 55.9317 41.8913 55.5258 41.17 54.83ZM54.83 54.83C54.0707 55.5561 53.0606 55.9614 52.01 55.9614C50.9594 55.9614 49.9493 55.5561 49.19 54.83L41.19 46.83C40.445 46.0805 40.0268 45.0667 40.0268 44.01C40.0268 42.9532 40.445 41.9394 41.19 41.19C41.9395 40.445 42.9533 40.0268 44.01 40.0268C45.0668 40.0268 46.0806 40.445 46.83 41.19L54.83 49.19C55.575 49.9394 55.9932 50.9532 55.9932 52.01C55.9932 53.0667 55.575 54.0805 54.83 54.83ZM49.77 47.29C49.6763 47.3829 49.6019 47.4935 49.5511 47.6154C49.5004 47.7372 49.4742 47.8679 49.4742 48C49.4742 48.132 49.5004 48.2627 49.5511 48.3845C49.6019 48.5064 49.6763 48.617 49.77 48.71C49.9574 48.8962 50.2108 49.0007 50.475 49.0007C50.7392 49.0007 50.9927 48.8962 51.18 48.71C51.2737 48.617 51.3481 48.5064 51.3989 48.3845C51.4497 48.2627 51.4758 48.132 51.4758 48C51.4758 47.8679 51.4497 47.7372 51.3989 47.6154C51.3481 47.4935 51.2737 47.3829 51.18 47.29C50.9927 47.1037 50.7392 46.9992 50.475 46.9992C50.2108 46.9992 49.9574 47.1037 49.77 47.29ZM47.29 44.82C47.1038 45.0073 46.9992 45.2608 46.9992 45.525C46.9992 45.7891 47.1038 46.0426 47.29 46.23C47.383 46.3237 47.4936 46.3981 47.6154 46.4488C47.7373 46.4996 47.868 46.5258 48 46.5258C48.132 46.5258 48.2627 46.4996 48.3846 46.4488C48.5065 46.3981 48.6171 46.3237 48.71 46.23C48.8963 46.0426 49.0008 45.7891 49.0008 45.525C49.0008 45.2608 48.8963 45.0073 48.71 44.82C48.6171 44.7262 48.5065 44.6518 48.3846 44.6011C48.2627 44.5503 48.132 44.5242 48 44.5242C47.868 44.5242 47.7373 44.5503 47.6154 44.6011C47.4936 44.6518 47.383 44.7262 47.29 44.82Z" fill="#0283FA"/>
</svg>
