<svg width="74" height="74" viewBox="0 0 74 74" fill="none" xmlns="http://www.w3.org/2000/svg">
<rect x="36.7696" y="2.12132" width="49" height="49" rx="8.5" transform="rotate(45 36.7696 2.12132)" stroke="#0283FA" stroke-width="3"/>
<path d="M44 32H41V30.5C41 29.837 40.7366 29.2011 40.2678 28.7322C39.7989 28.2634 39.163 28 38.5 28H35.5C34.837 28 34.2011 28.2634 33.7322 28.7322C33.2634 29.2011 33 29.837 33 30.5V32H30C29.2044 32 28.4413 32.3161 27.8787 32.8787C27.3161 33.4413 27 34.2044 27 35V43C27 43.7956 27.3161 44.5587 27.8787 45.1213C28.4413 45.6839 29.2044 46 30 46H44C44.7956 46 45.5587 45.6839 46.1213 45.1213C46.6839 44.5587 47 43.7956 47 43V35C47 34.2044 46.6839 33.4413 46.1213 32.8787C45.5587 32.3161 44.7956 32 44 32ZM40 34V44H34V34H40ZM35 30.5C35 30.3674 35.0527 30.2402 35.1464 30.1464C35.2402 30.0527 35.3674 30 35.5 30H38.5C38.6326 30 38.7598 30.0527 38.8536 30.1464C38.9473 30.2402 39 30.3674 39 30.5V32H35V30.5ZM29 43V35C29 34.7348 29.1054 34.4804 29.2929 34.2929C29.4804 34.1054 29.7348 34 30 34H32V44H30C29.7348 44 29.4804 43.8946 29.2929 43.7071C29.1054 43.5196 29 43.2652 29 43ZM45 43C45 43.2652 44.8946 43.5196 44.7071 43.7071C44.5196 43.8946 44.2652 44 44 44H42V34H44C44.2652 34 44.5196 34.1054 44.7071 34.2929C44.8946 34.4804 45 34.7348 45 35V43Z" fill="#0283FA"/>
</svg>
